A thriller centered on an institutionalized young woman who becomes terrorized by a ghost.

Director:
John Carpenter
Writers:
Michael Rasmussen, Shawn Rasmussen
Stars:
Amber Heard, Mamie Gummer and Danielle Panabaker

Media info:

General
Complete name                    : E:\torrent2\John.Carpenter's.The.Ward.2010.BluRay rip.MKV.1080p.AVC.DTS 5.1-ACB-Team\John.Carpenter's.The.Ward.2010.BluRay rip.MKV.1080p.AVC.DTS 5.1-ACB-Team.mkv
Format                           : Matroska
File size                        : 9.39 GiB
Duration                         : 1h 28mn
Overall bit rate                 : 15.1 Mbps
Movie name                       : movie
Encoded date                     : UTC 2011-08-07 10:28:20
Writing application              : mkvmerge v3.2.0 ('Beginnings') built on Feb 12 2010 16:46:17
Writing library                  : libebml v0.7.9 + libmatroska v0.8.1

Video
ID                               : 1
Format                           : AVC
Format/Info                      : Advanced Video Codec
Format profile                   : High@L4.1
Format settings, CABAC           : Yes
Format settings, ReFrames        : 2 frames
Format settings, GOP             : M=4, N=16
Muxing mode                      : Container profile=Unknown@0.0
Codec ID                         : V_MPEG4/ISO/AVC
Duration                         : 1h 28mn
Bit rate mode                    : Variable
Bit rate                         : 13.7 Mbps
Maximum bit rate                 : 35.0 Mbps
Width                            : 1 920 pixels
Height                           : 1 080 pixels
Display aspect ratio             : 16:9
Frame rate                       : 23.976 fps
Color space                      : YUV
Chroma subsampling               : 4:2:0
Bit depth                        : 8 bits
Scan type                        : Progressive
Bits/(Pixel*Frame)               : 0.275
Stream size                      : 8.27 GiB (88%)
Writing library                  : x264 core 116 r2044 392e762
Encoding settings                : cabac=1 / ref=1 / deblock=1:0:0 / analyse=0x3:0x3 / me=dia / subme=1 / psy=1 / psy_rd=1.00:0.00 / mixed_ref=0 / me_range=16 / chroma_me=1 / trellis=0 / 8x8dct=1 / cqm=0 / deadzone=21,11 / fast_pskip=1 / chroma_qp_offset=0 / threads=3 / sliced_threads=0 / slices=4 / nr=0 / decimate=1 / interlaced=0 / bluray_compat=1 / constrained_intra=0 / bframes=3 / b_pyramid=0 / b_adapt=1 / b_bias=0 / direct=1 / weightb=1 / open_gop=0 / weightp=1 / keyint=24 / keyint_min=1 / scenecut=40 / intra_refresh=0 / rc_lookahead=0 / rc=abr / mbtree=0 / bitrate=13671 / ratetol=1.0 / qcomp=0.60 / qpmin=0 / qpmax=69 / qpstep=4 / vbv_maxrate=35000 / vbv_bufsize=30000 / nal_hrd=vbr / ip_ratio=1.10 / pb_ratio=1.10 / aq=1:1.00

Audio
ID                               : 2
Format                           : DTS
Format/Info                      : Digital Theater Systems
Codec ID                         : A_DTS
Duration                         : 1h 28mn
Bit rate mode                    : Constant
Bit rate                         : 1 510 Kbps
Channel(s)                       : 6 channels
Channel positions                : Front: L C R, Side: L R, LFE
Sampling rate                    : 48.0 KHz
Bit depth                        : 24 bits
Stream size                      : 960 MiB (10%)
Language                         : English

Text #1
ID                               : 3
Format                           : VobSub
Muxing mode                      : zlib
Codec ID                         : S_VOBSUB
Codec ID/Info                    : The same subtitle format used on DVDs
Language                         : English

Text #2
ID                               : 4
Format                           : UTF-8
Codec ID                         : S_TEXT/UTF8
Codec ID/Info                    : UTF-8 Plain Text
Language                         : Dutch

Menu
00:00:00.000                     : en:00:00:00.000
00:07:29.157                     : en:00:07:29.157
00:13:29.475                     : en:00:13:29.475
00:20:24.264                     : en:00:20:24.264
00:28:27.705                     : en:00:28:27.705
00:38:38.024                     : en:00:38:38.024
00:42:20.454                     : en:00:42:20.454
00:50:58.930                     : en:00:50:58.930
00:56:31.971                     : en:00:56:31.971
01:05:56.285                     : en:01:05:56.285
01:11:34.748                     : en:01:11:34.748
01:24:30.648                     : en:01:24:30.648

 